<svg xmlns="http://www.w3.org/2000/svg" viewBox="0 0 500 500"><g id="freepik--Notification--inject-2"><g id="freepik--notification--inject-2"><g id="freepik--Button--inject-2"><path d="M272.87,84.9,305,66.32c1.27-.73,2.29-.14,2.29,1.32V105a5,5,0,0,1-2.29,4l-32.14,18.59c-1.26.73-2.29.14-2.29-1.32V88.86A5.08,5.08,0,0,1,272.87,84.9Z" style="fill:#fafafa"></path><path d="M306,66l0,1.12a.83.83,0,0,1,.11.51V105a4,4,0,0,1-1.74,3l-32.14,18.58a.89.89,0,0,1-.49.16h0a.83.83,0,0,1-.11-.51V88.86a4,4,0,0,1,1.73-3l32.14-18.58a.94.94,0,0,1,.47-.16V66m0,0a2.12,2.12,0,0,0-1,.31L272.87,84.9a5.08,5.08,0,0,0-2.29,4v37.36c0,1,.52,1.63,1.27,1.63a2.09,2.09,0,0,0,1-.31L305,109a5,5,0,0,0,2.29-4V67.64c0-1-.51-1.63-1.26-1.63Z" style="fill:#e0e0e0"></path><path d="M271.25,86.61l-5.83-3.38a4.64,4.64,0,0,0-.67,2.26v37.35a1.62,1.62,0,0,0,.65,1.47c.42.26,5.42,3.11,5.81,3.36a1.64,1.64,0,0,1-.62-1.45V88.86A4.73,4.73,0,0,1,271.25,86.61Z" style="fill:#e0e0e0"></path><path d="M271.25,86.61l-5.83-3.38a4.64,4.64,0,0,0-.67,2.26v37.35a1.62,1.62,0,0,0,.65,1.47c.42.26,5.42,3.11,5.81,3.36a1.64,1.64,0,0,1-.62-1.45V88.86A4.73,4.73,0,0,1,271.25,86.61Z" style="opacity:0.1"></path><path d="M306.54,66.11c-.81-.5-5.35-3.1-5.72-3.32a1.63,1.63,0,0,0-1.64.15L267,81.53a4.66,4.66,0,0,0-1.62,1.7l5.83,3.38a4.69,4.69,0,0,1,1.62-1.71L305,66.32A1.67,1.67,0,0,1,306.54,66.11Z" style="fill:#ebebeb"></path></g><path d="M299.83,97l0,0c-1.59-.72-2.64-2.52-2.64-5.2v-5c0-5.69-3.46-8.31-7.73-5.85S281.7,90,281.7,95.67v4.46a17.63,17.63,0,0,1-2.6,8.71v0a4.84,4.84,0,0,0-.64,2.28c0,1.43.88,2.09,1.95,1.47l18.06-10.42a4.68,4.68,0,0,0,1.94-3.72A1.82,1.82,0,0,0,299.83,97Zm-10.4,16.93c2.05-1.18,3.71-4.36,3.71-7.09l-7.42,4.28C285.72,113.82,287.38,115.07,289.43,113.89Z" style="fill:#407BFF"></path></g></g><g id="freepik--Video--inject-2"><g id="freepik--video--inject-2"><g id="freepik--button--inject-2"><path d="M29.8,301.88,80.28,272.7c2-1.14,3.6-.21,3.6,2.08v58.66a7.92,7.92,0,0,1-3.6,6.22L29.8,368.85c-2,1.15-3.59.22-3.59-2.08V308.11A8,8,0,0,1,29.8,301.88Z" style="fill:#fafafa"></path><path d="M81.89,273.3c.78,0,.9.93.9,1.48v58.66a6.87,6.87,0,0,1-3.05,5.28L29.26,367.91a2.22,2.22,0,0,1-1.06.34c-.79,0-.91-.92-.91-1.48V308.11a6.85,6.85,0,0,1,3.05-5.28l50.49-29.19a2.28,2.28,0,0,1,1.06-.34m0-1.09a3.32,3.32,0,0,0-1.61.49L29.8,301.88a8,8,0,0,0-3.59,6.23v58.66c0,1.63.81,2.57,2,2.57a3.29,3.29,0,0,0,1.6-.49l50.48-29.19a7.92,7.92,0,0,0,3.6-6.22V274.78c0-1.63-.81-2.57-2-2.57Z" style="fill:#e0e0e0"></path><path d="M27.26,304.57l-9.16-5.31A7.39,7.39,0,0,0,17,302.81v58.66a2.55,2.55,0,0,0,1,2.31c.66.4,8.51,4.88,9.12,5.28a2.6,2.6,0,0,1-1-2.29V308.11A7.34,7.34,0,0,1,27.26,304.57Z" style="fill:#e0e0e0"></path><path d="M27.26,304.57l-9.16-5.31A7.39,7.39,0,0,0,17,302.81v58.66a2.55,2.55,0,0,0,1,2.31c.66.4,8.51,4.88,9.12,5.28a2.6,2.6,0,0,1-1-2.29V308.11A7.34,7.34,0,0,1,27.26,304.57Z" style="opacity:0.1"></path><path d="M82.68,272.37c-1.28-.78-8.41-4.87-9-5.21a2.52,2.52,0,0,0-2.57.23L20.64,296.58a7.46,7.46,0,0,0-2.54,2.68l9.16,5.31a7.41,7.41,0,0,1,2.54-2.69L80.29,272.7A2.65,2.65,0,0,1,82.68,272.37Z" style="fill:#ebebeb"></path></g><ellipse cx="55.04" cy="320.78" rx="28.32" ry="16.02" transform="translate(-261.67 245.82) rotate(-66.95)" style="fill:#407BFF"></ellipse><path d="M47.47,334.93V315.37c0-1.4,1.1-2.94,2-2.86l14.67,1.31c1,.09,1,2.07,0,3.36L49.51,335.44C48.57,336.6,47.47,336.33,47.47,334.93Z" style="fill:#fff"></path></g></g><g id="freepik--Phone--inject-2"><g id="freepik--phone--inject-2"><g id="freepik--button--inject-2"><path d="M83.53,390.77,133,362.2c1.94-1.12,3.52-.21,3.52,2v57.43a7.8,7.8,0,0,1-3.52,6.1L83.53,456.33c-1.94,1.12-3.51.21-3.51-2V396.87A7.77,7.77,0,0,1,83.53,390.77Z" style="fill:#407BFF"></path><path d="M125.68,408c-1-.07-5.65-.43-6.52-.34s-1.52.24-2.15,1.88-2.48,5.53-3,6.67-1.11,1.59-2.08,1.52a13.45,13.45,0,0,1-7.67-1.84,17,17,0,0,1-5.3-5.66c-.55-.95-.05-1.91.42-2.82s1-2,1.44-3c.13-.29.24-.55.35-.81.21-.59.38-1.12.6-1.85a2.74,2.74,0,0,0-.08-2.17c-.23-.49-2.15-5.61-3-7.67s-1.58-1.18-2.15-.85-1.18.56-1.82.93a7.06,7.06,0,0,0-2.55,3,26.65,26.65,0,0,0-3.33,12.47,17.29,17.29,0,0,0,.49,4,17,17,0,0,0,3.4,6.77c.48.56,6.6,10.19,16.29,9.67s9.71-2.25,11.46-3.48,5.65-6.3,6.44-9.72.8-5.93.56-6.32S126.63,408.11,125.68,408Z" style="fill:#fff;fill-rule:evenodd"></path><path d="M81.05,393.4l-9-5.2a7.21,7.21,0,0,0-1,3.48v57.43a2.51,2.51,0,0,0,1,2.26c.65.39,8.33,4.78,8.93,5.17a2.54,2.54,0,0,1-1-2.24V396.86A7.23,7.23,0,0,1,81.05,393.4Z" style="fill:#407BFF"></path><path d="M81.05,393.4l-9-5.2a7.21,7.21,0,0,0-1,3.48v57.43a2.51,2.51,0,0,0,1,2.26c.65.39,8.33,4.78,8.93,5.17a2.54,2.54,0,0,1-1-2.24V396.86A7.23,7.23,0,0,1,81.05,393.4Z" style="opacity:0.2"></path><path d="M135.31,361.88c-1.26-.77-8.24-4.77-8.81-5.11A2.48,2.48,0,0,0,124,357L74.57,385.58a7.23,7.23,0,0,0-2.49,2.62l9,5.2a7.24,7.24,0,0,1,2.48-2.63L133,362.2A2.59,2.59,0,0,1,135.31,361.88Z" style="fill:#407BFF"></path><path d="M135.31,361.88c-1.26-.77-8.24-4.77-8.81-5.11A2.48,2.48,0,0,0,124,357L74.57,385.58a7.23,7.23,0,0,0-2.49,2.62l9,5.2a7.24,7.24,0,0,1,2.48-2.63L133,362.2A2.59,2.59,0,0,1,135.31,361.88Z" style="fill:#fff;opacity:0.25"></path></g></g></g><g id="freepik--Mail--inject-2"><g id="freepik--mail--inject-2"><g id="freepik--button--inject-2"><path d="M373.45,47.47,327,20.64c-1.83-1.06-3.31-.2-3.31,1.9v54A7.31,7.31,0,0,0,327,82.22l46.42,26.84c1.83,1,3.31.2,3.31-1.91V53.2A7.31,7.31,0,0,0,373.45,47.47Z" style="fill:#407BFF"></path><path d="M375.79,49.94l8.43-4.88a6.77,6.77,0,0,1,1,3.26v54a2.35,2.35,0,0,1-.95,2.12c-.61.36-7.82,4.49-8.39,4.85a2.35,2.35,0,0,0,.9-2.1V53.2A6.84,6.84,0,0,0,375.79,49.94Z" style="fill:#407BFF"></path><path d="M375.79,49.94l8.43-4.88a6.77,6.77,0,0,1,1,3.26v54a2.35,2.35,0,0,1-.95,2.12c-.61.36-7.82,4.49-8.39,4.85a2.35,2.35,0,0,0,.9-2.1V53.2A6.84,6.84,0,0,0,375.79,49.94Z" style="opacity:0.2"></path><path d="M324.82,20.33c1.18-.72,7.74-4.48,8.27-4.8a2.34,2.34,0,0,1,2.37.22L381.88,42.6a6.85,6.85,0,0,1,2.34,2.46l-8.43,4.88a6.86,6.86,0,0,0-2.33-2.47L327,20.64A2.43,2.43,0,0,0,324.82,20.33Z" style="fill:#407BFF"></path><path d="M324.82,20.33c1.18-.72,7.74-4.48,8.27-4.8a2.34,2.34,0,0,1,2.37.22L381.88,42.6a6.85,6.85,0,0,1,2.34,2.46l-8.43,4.88a6.86,6.86,0,0,0-2.33-2.47L327,20.64A2.43,2.43,0,0,0,324.82,20.33Z" style="fill:#fff;opacity:0.25"></path></g><path d="M354.56,68.88l15.31,22.5a1.73,1.73,0,0,0,.22-.93v-29a3.54,3.54,0,0,0-.25-1.27Zm-7-3-16,5.1a2.88,2.88,0,0,0,.39.3l36.58,21.12a1.15,1.15,0,0,0,.87.15L353.68,69.36l-3.07,1.45Zm3.58,1.35,18.55-7.37a3.07,3.07,0,0,0-1.15-1.34L332,37.35a1.07,1.07,0,0,0-.82-.16ZM330.39,38.53V68.24a3.91,3.91,0,0,0,.5,1.81L347,64.91,331,37.26A1.33,1.33,0,0,0,330.39,38.53Z" style="fill:#fff"></path></g></g><g id="freepik--Calendar--inject-2"><g id="freepik--calendar--inject-2"><g id="freepik--button--inject-2"><path d="M446,74.06l-36.68-21.2c-1.44-.84-2.61-.16-2.61,1.5V97a5.78,5.78,0,0,0,2.61,4.52L446,122.7c1.44.83,2.61.16,2.61-1.51V78.58A5.76,5.76,0,0,0,446,74.06Z" style="fill:#fafafa"></path><path d="M408.16,53.77a1.13,1.13,0,0,1,.53.19l36.67,21.2a4.5,4.5,0,0,1,2,3.42v42.61c0,.4-.1.57-.17.59a1.19,1.19,0,0,1-.53-.18L410,100.39A4.48,4.48,0,0,1,408,97V54.36a1,1,0,0,1,.12-.58h.05m0-1.27c-.86,0-1.45.68-1.45,1.86V97a5.78,5.78,0,0,0,2.61,4.52L446,122.7a2.38,2.38,0,0,0,1.16.36c.86,0,1.45-.68,1.45-1.87V78.58A5.76,5.76,0,0,0,446,74.06l-36.68-21.2a2.25,2.25,0,0,0-1.16-.36Z" style="fill:#e0e0e0"></path><path d="M448.61,90.33V78.58A5.76,5.76,0,0,0,446,74.06l-36.68-21.2c-1.44-.84-2.61-.16-2.61,1.5V66.11Z" style="fill:#407BFF"></path><path d="M416.17,82.49a1.32,1.32,0,0,1-.11-.62.43.43,0,0,1,.22-.38l4.51-2.14.35-.12a.5.5,0,0,1,.38.07l1.63.94a1.1,1.1,0,0,1,.39.45,1.35,1.35,0,0,1,.17.62V99.24a.51.51,0,0,1-.17.43.33.33,0,0,1-.39,0l-1.69-1a1.12,1.12,0,0,1-.4-.45,1.33,1.33,0,0,1-.16-.62V83.91l-3,1.38a.42.42,0,0,1-.41-.09,1.41,1.41,0,0,1-.38-.51Z" style="fill:#455a64"></path><path d="M427.2,83.33a.52.52,0,0,1,.17-.43.33.33,0,0,1,.39,0l7.83,4.52a1.12,1.12,0,0,1,.4.45,1.33,1.33,0,0,1,.16.62v2a.5.5,0,0,1-.16.43.33.33,0,0,1-.4,0l-5.85-3.37-.23,3.42a2.85,2.85,0,0,1,1.12.28c.36.18.67.33.9.47a10.69,10.69,0,0,1,2.17,1.66,11.11,11.11,0,0,1,1.72,2.24,11.39,11.39,0,0,1,1.15,2.67,10.54,10.54,0,0,1,.42,3,7.49,7.49,0,0,1-.43,2.79,2.67,2.67,0,0,1-1.17,1.41,2.58,2.58,0,0,1-1.74.19,7.39,7.39,0,0,1-2.12-.85,12,12,0,0,1-2.47-1.87,11.14,11.14,0,0,1-1.7-2.19,10.39,10.39,0,0,1-1-2.34A9.56,9.56,0,0,1,426,96.1c0-.23,0-.38.16-.45a.41.41,0,0,1,.41,0l1.68,1a1.09,1.09,0,0,1,.38.39,2.09,2.09,0,0,1,.23.62,4.62,4.62,0,0,0,.39,1.27,5,5,0,0,0,.63,1,4.86,4.86,0,0,0,.79.78,9.62,9.62,0,0,0,.91.61,1.86,1.86,0,0,0,1.92.24c.48-.29.72-.94.72-1.94a5,5,0,0,0-.72-2.5,5.47,5.47,0,0,0-1.92-2,4,4,0,0,0-1-.45,1.61,1.61,0,0,0-.59,0l-.42,0a.92.92,0,0,1-.48-.15l-1.91-1.11a1.12,1.12,0,0,1-.4-.45,1.46,1.46,0,0,1-.16-.62Z" style="fill:#455a64"></path><path d="M447.84,76l6.66-3.86a5.38,5.38,0,0,1,.77,2.58v42.61a1.86,1.86,0,0,1-.75,1.68c-.48.29-6.18,3.55-6.63,3.83a1.85,1.85,0,0,0,.71-1.66V78.58A5.3,5.3,0,0,0,447.84,76Z" style="fill:#e0e0e0"></path><path d="M447.84,76l6.66-3.86a5.38,5.38,0,0,1,.77,2.58v42.61a1.86,1.86,0,0,1-.75,1.68c-.48.29-6.18,3.55-6.63,3.83a1.85,1.85,0,0,0,.71-1.66V78.58A5.3,5.3,0,0,0,447.84,76Z" style="opacity:0.1"></path><path d="M455.27,74.73a5.38,5.38,0,0,0-.77-2.58L447.84,76a5.3,5.3,0,0,1,.76,2.57V90.32h0l6.66-3.85Z" style="fill:#407BFF"></path><path d="M455.27,74.73a5.38,5.38,0,0,0-.77-2.58L447.84,76a5.3,5.3,0,0,1,.76,2.57V90.32h0l6.66-3.85Z" style="opacity:0.1"></path><path d="M407.58,52.61c.93-.56,6.11-3.53,6.53-3.78A1.82,1.82,0,0,1,416,49l36.67,21.21a5.32,5.32,0,0,1,1.85,1.94L447.84,76a5.36,5.36,0,0,0-1.84-2L409.32,52.86A1.93,1.93,0,0,0,407.58,52.61Z" style="fill:#407BFF"></path><path d="M407.58,52.61c.93-.56,6.11-3.53,6.53-3.78A1.82,1.82,0,0,1,416,49l36.67,21.21a5.32,5.32,0,0,1,1.85,1.94L447.84,76a5.36,5.36,0,0,0-1.84-2L409.32,52.86A1.93,1.93,0,0,0,407.58,52.61Z" style="fill:#fff;opacity:0.30000000000000004"></path></g><path d="M448.25,57.72a5.93,5.93,0,0,0-3-.77A8.53,8.53,0,0,0,441,58.19a17.58,17.58,0,0,0-8,13.93c0,3,1.17,5.33,3.2,6.5a5.94,5.94,0,0,0,2.92.76h0c.67,0,1.13-.56,1.13-1.51a4.76,4.76,0,0,0-1.7-3.38h0a2.79,2.79,0,0,1-.81-2.36,12.7,12.7,0,0,1,5.64-9.79,2.83,2.83,0,0,1,2.47-.48,2.83,2.83,0,0,1,.81,2.37,9,9,0,0,1-.34,2.35L450.57,69a14.53,14.53,0,0,0,.88-4.77C451.45,61.26,450.27,58.9,448.25,57.72Z" style="fill:#e0e0e0"></path><path d="M428.31,46.2a5.93,5.93,0,0,0-3-.77,8.5,8.5,0,0,0-4.24,1.24,17.55,17.55,0,0,0-8,13.93c0,3,1.17,5.33,3.2,6.5a6,6,0,0,0,2.92.76h0c.67,0,1.14-.56,1.14-1.51a4.77,4.77,0,0,0-1.7-3.38h0a2.76,2.76,0,0,1-.81-2.36,12.7,12.7,0,0,1,5.64-9.79,2.78,2.78,0,0,1,2.46-.48,2.83,2.83,0,0,1,.81,2.37,8.79,8.79,0,0,1-.33,2.33l4.22,2.44a14.53,14.53,0,0,0,.88-4.77C431.51,49.74,430.34,47.37,428.31,46.2Z" style="fill:#e0e0e0"></path></g></g><g id="freepik--Camera--inject-2"><g id="freepik--camera--inject-2"><g id="freepik--button--inject-2"><path d="M360.3,215.71l-37.17-21.49c-1.46-.84-2.64-.16-2.64,1.53v43.18a5.86,5.86,0,0,0,2.64,4.59L360.3,265c1.46.85,2.64.16,2.64-1.52V220.29A5.83,5.83,0,0,0,360.3,215.71Z" style="fill:#407BFF"></path><path d="M360.3,215.71l-37.17-21.49c-1.46-.84-2.64-.16-2.64,1.53v43.18a5.86,5.86,0,0,0,2.64,4.59L360.3,265c1.46.85,2.64.16,2.64-1.52V220.29A5.83,5.83,0,0,0,360.3,215.71Z" style="fill:#fff;opacity:0.30000000000000004"></path><path d="M362.16,217.68l6.75-3.91a5.43,5.43,0,0,1,.78,2.62v43.18a1.87,1.87,0,0,1-.76,1.7c-.49.29-6.26,3.6-6.71,3.89a1.91,1.91,0,0,0,.72-1.69V220.29A5.39,5.39,0,0,0,362.16,217.68Z" style="fill:#407BFF"></path><path d="M321.37,194c.94-.58,6.19-3.59,6.62-3.84a1.86,1.86,0,0,1,1.89.17L367,211.8a5.46,5.46,0,0,1,1.87,2l-6.75,3.91a5.39,5.39,0,0,0-1.86-2l-37.17-21.48A1.94,1.94,0,0,0,321.37,194Z" style="fill:#407BFF"></path><path d="M321.37,194c.94-.58,6.19-3.59,6.62-3.84a1.86,1.86,0,0,1,1.89.17L367,211.8a5.46,5.46,0,0,1,1.87,2l-6.75,3.91a5.39,5.39,0,0,0-1.86-2l-37.17-21.48A1.94,1.94,0,0,0,321.37,194Z" style="fill:#fff;opacity:0.45"></path></g><polygon points="330.11 209.56 332.85 211.14 332.85 212.34 330.11 210.76 330.11 209.56" style="fill:#fff"></polygon><path d="M354.42,225.78l-5.2-3a3.88,3.88,0,0,1-1.77-3.08,4,4,0,0,0-1.79-3.1l-7.9-4.56c-1-.56-1.78-.09-1.78,1s-.8,1.6-1.79,1l-5.19-3c-1-.57-1.78-.11-1.78,1v19.54a3.88,3.88,0,0,0,1.77,3.08l25.43,14.69c1,.56,1.78.09,1.78-1V228.87A4,4,0,0,0,354.42,225.78Zm-6,7.77c0,5.28-3.21,7.71-7.17,5.42s-7.18-8.43-7.18-13.71,3.22-7.69,7.18-5.42S348.44,228.27,348.44,233.55Zm2.06-6.6c0,.63-.43.88-1,.56a2.17,2.17,0,0,1-1-1.69c0-.61.44-.88,1-.57A2.14,2.14,0,0,1,350.5,227Z" style="fill:#fff"></path><path d="M346.64,232.51c0,4-2.41,5.77-5.37,4.06s-5.37-6.3-5.37-10.26,2.4-5.77,5.37-4.06S346.64,228.56,346.64,232.51Z" style="fill:#fff"></path></g></g><g id="freepik--Contacts--inject-2"><g id="freepik--contacts--inject-2"><g id="freepik--button--inject-2"><path d="M424,246.87l-31.27-18.08c-1.23-.71-2.23-.14-2.23,1.28v36.34a4.93,4.93,0,0,0,2.23,3.86L424,288.35c1.23.71,2.23.13,2.23-1.29V250.72A4.91,4.91,0,0,0,424,246.87Z" style="fill:#fafafa"></path><path d="M391.75,229.57a1,1,0,0,1,.45.16l31.28,18.08a3.86,3.86,0,0,1,1.68,2.91v36.34c0,.34-.09.49-.15.51a1,1,0,0,1-.45-.16l-31.27-18.08a3.83,3.83,0,0,1-1.68-2.92V230.07a.87.87,0,0,1,.1-.49h0m0-1.09c-.73,0-1.23.59-1.23,1.59v36.34a4.93,4.93,0,0,0,2.23,3.86L424,288.35a2,2,0,0,0,1,.3c.74,0,1.24-.58,1.24-1.59V250.72a4.91,4.91,0,0,0-2.23-3.85l-31.27-18.08a2,2,0,0,0-1-.31Z" style="fill:#e0e0e0"></path><path d="M425.59,248.53l5.68-3.29a4.61,4.61,0,0,1,.65,2.2v36.34a1.58,1.58,0,0,1-.63,1.43c-.41.25-5.27,3-5.65,3.27a1.61,1.61,0,0,0,.6-1.42V250.72A4.57,4.57,0,0,0,425.59,248.53Z" style="fill:#e0e0e0"></path><path d="M425.59,248.53l5.68-3.29a4.61,4.61,0,0,1,.65,2.2v36.34a1.58,1.58,0,0,1-.63,1.43c-.41.25-5.27,3-5.65,3.27a1.61,1.61,0,0,0,.6-1.42V250.72A4.57,4.57,0,0,0,425.59,248.53Z" style="opacity:0.1"></path><path d="M391.26,228.58c.79-.48,5.21-3,5.57-3.23a1.58,1.58,0,0,1,1.59.15l31.27,18.08a4.52,4.52,0,0,1,1.58,1.66l-5.68,3.29a4.61,4.61,0,0,0-1.57-1.67l-31.28-18.07A1.65,1.65,0,0,0,391.26,228.58Z" style="fill:#ebebeb"></path></g><path d="M414.07,254.54c0-4.19-2.55-9.06-5.69-10.87s-5.68.11-5.68,4.3,2.54,9,5.68,10.87S414.07,258.72,414.07,254.54ZM398.6,266.78l19.57,11.3-.21-3.81c-.23-4.14-2.73-8.69-5.75-10.44l-7.65-4.41c-3-1.75-5.53-.09-5.75,3.79Z" style="fill:#e0e0e0"></path></g></g><g id="freepik--Text--inject-2"><g id="freepik--text--inject-2"><g id="freepik--button--inject-2"><path d="M334.18,477l35.44-20.44c1.4-.8,1.4-2.11,0-2.91L334,433.07a5.61,5.61,0,0,0-5.05,0l-35.45,20.44c-1.39.8-1.39,2.1,0,2.91L329.13,477A5.55,5.55,0,0,0,334.18,477Z" style="fill:#fafafa"></path><path d="M331.46,433.7a3.92,3.92,0,0,1,1.9.44L369,454.72a1,1,0,0,1,.43.38s-.1.2-.43.4l-35.45,20.43a3.9,3.9,0,0,1-1.9.44,3.94,3.94,0,0,1-1.91-.44L294.1,455.35a1,1,0,0,1-.43-.38s.1-.2.43-.4l35.45-20.43a3.94,3.94,0,0,1,1.91-.44m0-1.23a5.2,5.2,0,0,0-2.53.6l-35.45,20.44c-1.39.8-1.39,2.1,0,2.91L329.13,477a5.61,5.61,0,0,0,5.05,0l35.44-20.44c1.4-.8,1.4-2.11,0-2.91L334,433.07a5.19,5.19,0,0,0-2.52-.6Z" style="fill:#e0e0e0"></path><path d="M331.66,477.6V485a5.2,5.2,0,0,1-2.53-.6l-35.65-20.58a1.81,1.81,0,0,1-1-1.44c0-.54,0-6.88,0-7.39a1.83,1.83,0,0,0,1.05,1.4L329.14,477A5.13,5.13,0,0,0,331.66,477.6Z" style="fill:#e0e0e0"></path><path d="M331.66,477.6V485a5.2,5.2,0,0,1-2.53-.6l-35.65-20.58a1.81,1.81,0,0,1-1-1.44c0-.54,0-6.88,0-7.39a1.83,1.83,0,0,0,1.05,1.4L329.14,477A5.13,5.13,0,0,0,331.66,477.6Z" style="opacity:0.1"></path><path d="M370.67,455.22c0,1,0,6.82,0,7.29a1.77,1.77,0,0,1-1,1.49l-35.45,20.43a5.19,5.19,0,0,1-2.52.6V477.6a5.19,5.19,0,0,0,2.52-.6l35.45-20.44A1.87,1.87,0,0,0,370.67,455.22Z" style="fill:#ebebeb"></path></g><path d="M329.28,441.25l7.51,4.34-.63.37a26.07,26.07,0,0,0-5-1.43,12.49,12.49,0,0,0-3.71.05,9.05,9.05,0,0,0-2.73,1.15l-1.79,1,21.42,12.37a15.45,15.45,0,0,0,2.87,1.42,4.84,4.84,0,0,0,1.73.07,5.25,5.25,0,0,0,2-.7l.8-.46.75.43-12.59,7.27-.75-.43.79-.46a2.6,2.6,0,0,0,1.26-1.23,1,1,0,0,0-.26-1,11.17,11.17,0,0,0-2.38-1.61l-21.42-12.36-1.74,1q-2.43,1.41-2.34,2.73c.08,1.23,1,2.51,2.78,3.85l-.67.39-7.52-4.34Z" style="fill:#455a64"></path></g></g><g id="freepik--Location--inject-2"><g id="freepik--location--inject-2"><g id="freepik--button--inject-2"><path d="M398.23,144.42,351.8,117.58c-1.82-1.06-3.3-.2-3.3,1.91v53.94a7.33,7.33,0,0,0,3.3,5.73L398.23,206c1.83,1.06,3.31.2,3.31-1.91v-54A7.28,7.28,0,0,0,398.23,144.42Z" style="fill:#455a64"></path><path d="M400.57,146.89,409,142a6.69,6.69,0,0,1,1,3.27v53.95a2.34,2.34,0,0,1-1,2.12c-.61.37-7.82,4.49-8.39,4.86a2.38,2.38,0,0,0,.9-2.11v-54A6.8,6.8,0,0,0,400.57,146.89Z" style="fill:#263238"></path><path d="M349.6,117.27c1.18-.72,7.73-4.47,8.27-4.79a2.31,2.31,0,0,1,2.36.21l46.42,26.85A6.77,6.77,0,0,1,409,142l-8.42,4.89a6.83,6.83,0,0,0-2.34-2.48L351.8,117.58A2.43,2.43,0,0,0,349.6,117.27Z" style="fill:#37474f"></path></g><path d="M362.82,151.81c0,6.87,8.37,24.59,11.24,30.47a1.65,1.65,0,0,0,2.6.49c3.33-3.07,10.56-10.48,10.56-16.87V164c0-8.29-5.46-18.17-12.2-22.06s-12.2-.32-12.2,8Zm6.1.7c0-3.89,2.73-5.46,6.1-3.52a13.5,13.5,0,0,1,6.1,10.57c0,3.89-2.73,5.47-6.1,3.52A13.48,13.48,0,0,1,368.92,152.51Z" style="fill:#fff"></path></g></g><g id="freepik--Music--inject-2"><g id="freepik--music--inject-2"><g id="freepik--button--inject-2"><path d="M474.49,142l-46.43-26.83c-1.83-1.06-3.31-.2-3.31,1.9v54a7.31,7.31,0,0,0,3.31,5.73l46.43,26.84c1.82,1.06,3.3.2,3.3-1.91v-54A7.33,7.33,0,0,0,474.49,142Z" style="fill:#407BFF"></path><path d="M474.49,142l-46.43-26.83c-1.83-1.06-3.31-.2-3.31,1.9v54a7.31,7.31,0,0,0,3.31,5.73l46.43,26.84c1.82,1.06,3.3.2,3.3-1.91v-54A7.33,7.33,0,0,0,474.49,142Z" style="fill:#fff;opacity:0.30000000000000004"></path><path d="M476.82,144.44l8.43-4.88a6.78,6.78,0,0,1,1,3.27v53.95a2.35,2.35,0,0,1-.94,2.12c-.62.37-7.83,4.49-8.39,4.86a2.4,2.4,0,0,0,.9-2.11v-54A6.77,6.77,0,0,0,476.82,144.44Z" style="fill:#407BFF"></path><path d="M425.85,114.83c1.18-.72,7.74-4.47,8.27-4.8a2.34,2.34,0,0,1,2.37.22l46.42,26.85a6.85,6.85,0,0,1,2.34,2.46l-8.43,4.88a6.86,6.86,0,0,0-2.33-2.47l-46.44-26.83A2.43,2.43,0,0,0,425.85,114.83Z" style="fill:#407BFF"></path><path d="M425.85,114.83c1.18-.72,7.74-4.47,8.27-4.8a2.34,2.34,0,0,1,2.37.22l46.42,26.85a6.85,6.85,0,0,1,2.34,2.46l-8.43,4.88a6.86,6.86,0,0,0-2.33-2.47l-46.44-26.83A2.43,2.43,0,0,0,425.85,114.83Z" style="fill:#fff;opacity:0.45"></path></g><path d="M440,132.2l0,29.36a20.34,20.34,0,0,0-2.85-2c-3.26-1.88-5.9-.77-5.9,2.5s2.64,7.43,5.91,9.31,7.17,1.46,7.17-1.8l0-25.12,18.94,6.76,0,23.86a21.58,21.58,0,0,0-2.85-2c-3.26-1.88-4.82-.18-4.82,3.08s2.64,7.43,5.91,9.32,5.9.76,5.9-2.5h0l0-37.27Z" style="fill:#fff"></path></g></g><g id="freepik--Search--inject-2"><g id="freepik--Seach--inject-2"><g id="freepik--button--inject-2"><path d="M418.43,453.51l46.45-26.79c1.83-1.05,1.83-2.76,0-3.81l-46.72-27a7.33,7.33,0,0,0-6.61,0l-46.46,26.79c-1.82,1-1.82,2.76,0,3.81l46.73,27A7.27,7.27,0,0,0,418.43,453.51Z" style="fill:#407BFF"></path><path d="M418.43,453.51l46.45-26.79c1.83-1.05,1.83-2.76,0-3.81l-46.72-27a7.33,7.33,0,0,0-6.61,0l-46.46,26.79c-1.82,1-1.82,2.76,0,3.81l46.73,27A7.27,7.27,0,0,0,418.43,453.51Z" style="fill:#fff;opacity:0.30000000000000004"></path><path d="M415.12,454.3l0,9.74a6.79,6.79,0,0,1-3.32-.79l-46.72-27a2.32,2.32,0,0,1-1.36-1.88c0-.71,0-9,0-9.69a2.4,2.4,0,0,0,1.38,1.83l46.72,27A6.82,6.82,0,0,0,415.12,454.3Z" style="fill:#407BFF"></path><path d="M466.25,425c0,1.37,0,8.93,0,9.55a2.34,2.34,0,0,1-1.37,2l-46.46,26.77a6.83,6.83,0,0,1-3.3.8l0-9.74a6.72,6.72,0,0,0,3.31-.79l46.46-26.79A2.46,2.46,0,0,0,466.25,425Z" style="fill:#407BFF"></path><path d="M466.25,425c0,1.37,0,8.93,0,9.55a2.34,2.34,0,0,1-1.37,2l-46.46,26.77a6.83,6.83,0,0,1-3.3.8l0-9.74a6.72,6.72,0,0,0,3.31-.79l46.46-26.79A2.46,2.46,0,0,0,466.25,425Z" style="fill:#fff;opacity:0.45"></path></g><path d="M451.28,422h-18.2v1.37h-4.76c-.51-2.86-2.66-5.65-6.46-7.84-8.79-5.07-23-5.07-31.82,0s-8.79,13.29,0,18.36,23,5.08,31.82,0c3.79-2.19,5.94-5,6.46-7.84h4.76v1.37h18.2a2.71,2.71,0,1,0,0-5.42Zm-34.6,8.4c-5.93,3.15-15.54,3.15-21.46,0s-5.93-8.24,0-11.38,15.53-3.14,21.46,0S422.6,427.27,416.68,430.41Z" style="fill:#fff"></path></g></g><g id="freepik--Clock--inject-2"><g id="freepik--clock--inject-2"><g id="freepik--button--inject-2"><path d="M470.45,225.71,424,198.87c-1.83-1.05-3.31-.2-3.31,1.91v53.95a7.28,7.28,0,0,0,3.31,5.72l46.43,26.85c1.82,1.05,3.3.2,3.3-1.91V231.44A7.31,7.31,0,0,0,470.45,225.71Z" style="fill:#407BFF"></path><path d="M472.78,228.18l8.43-4.88a6.77,6.77,0,0,1,1,3.26v53.95a2.33,2.33,0,0,1-.94,2.12c-.62.37-7.83,4.49-8.39,4.86a2.4,2.4,0,0,0,.9-2.11V231.43A6.74,6.74,0,0,0,472.78,228.18Z" style="fill:#407BFF"></path><path d="M472.78,228.18l8.43-4.88a6.77,6.77,0,0,1,1,3.26v53.95a2.33,2.33,0,0,1-.94,2.12c-.62.37-7.83,4.49-8.39,4.86a2.4,2.4,0,0,0,.9-2.11V231.43A6.74,6.74,0,0,0,472.78,228.18Z" style="opacity:0.2"></path><path d="M421.82,198.57c1.17-.72,7.73-4.48,8.26-4.8a2.35,2.35,0,0,1,2.37.21l46.42,26.86a6.69,6.69,0,0,1,2.34,2.46l-8.43,4.88a6.78,6.78,0,0,0-2.33-2.47L424,198.87A2.4,2.4,0,0,0,421.82,198.57Z" style="fill:#407BFF"></path><path d="M421.82,198.57c1.17-.72,7.73-4.48,8.26-4.8a2.35,2.35,0,0,1,2.37.21l46.42,26.86a6.69,6.69,0,0,1,2.34,2.46l-8.43,4.88a6.78,6.78,0,0,0-2.33-2.47L424,198.87A2.4,2.4,0,0,0,421.82,198.57Z" style="fill:#fff;opacity:0.25"></path></g><path d="M447.23,219.28c-9.85-5.69-17.84.35-17.84,13.5s8,28.42,17.84,34.11,17.85-.36,17.85-13.5S457.09,225,447.23,219.28Zm0,44.26c-8.47-4.9-15.34-18-15.34-29.31s6.87-16.49,15.34-11.6,15.34,18,15.34,29.31S455.7,268.43,447.23,263.54Zm0-32.13c.17.09.3,0,.3-.23v-5.07a.71.71,0,0,0-.3-.58c-.16-.1-.3,0-.3.23v5.07A.76.76,0,0,0,447.23,231.41Zm-6.17-6.94c-.08-.24-.27-.42-.41-.39s-.19.25-.11.49l1.9,5.49a.7.7,0,0,0,.26.35.21.21,0,0,0,.15,0c.15,0,.2-.24.11-.48Zm-1.52,7.78-3.3-4.43c-.14-.2-.33-.24-.41-.1a.67.67,0,0,0,.11.62l3.3,4.44a.49.49,0,0,0,.15.14.18.18,0,0,0,.26,0A.67.67,0,0,0,439.54,232.25ZM438.47,238a.73.73,0,0,0-.3-.58l-3.8-2.19c-.17-.1-.3,0-.3.22a.71.71,0,0,0,.3.58l3.8,2.2C438.34,238.35,438.47,238.25,438.47,238Zm.77,6.13-3.3.63c-.14,0-.19.25-.11.49a.7.7,0,0,0,.26.35.21.21,0,0,0,.15,0l3.3-.63c.14,0,.19-.25.11-.49S439.38,244.13,439.24,244.16Zm3.61,6.51c-.14-.19-.33-.24-.41-.09l-1.9,3.29a.65.65,0,0,0,.11.61.53.53,0,0,0,.15.15.18.18,0,0,0,.26,0l1.9-3.3A.6.6,0,0,0,442.85,250.67Zm4.38,4.09c-.16-.1-.3,0-.3.23v5.07a.76.76,0,0,0,.3.58c.17.09.3,0,.3-.23v-5.07A.73.73,0,0,0,447.23,254.76Zm4.79,1.35c-.08-.24-.27-.41-.41-.38s-.19.24-.11.48l1.9,5.49a.7.7,0,0,0,.26.35.24.24,0,0,0,.15,0c.15,0,.2-.25.11-.49Zm6.5,1.72-3.29-4.44c-.14-.19-.33-.23-.41-.09a.6.6,0,0,0,.11.61l3.29,4.44a.48.48,0,0,0,.15.14c.11.06.21.05.26-.05A.6.6,0,0,0,458.52,257.83Zm1.58-7.72-3.81-2.2c-.17-.09-.3,0-.3.23a.73.73,0,0,0,.3.58l3.81,2.19c.16.1.3,0,.3-.23A.72.72,0,0,0,460.1,250.11Zm-5-8.13a.21.21,0,0,0,.15,0l3.29-.64c.15,0,.2-.24.11-.48s-.26-.41-.41-.38l-3.29.63c-.15,0-.2.24-.11.48A.6.6,0,0,0,455.08,242Zm-3.47-6.48a.64.64,0,0,0,.15.14c.11.06.21.05.26,0l1.9-3.29a.62.62,0,0,0-.11-.62c-.14-.19-.32-.23-.41-.09l-1.9,3.3A.65.65,0,0,0,451.61,235.5Zm-3.15,7.08a4.24,4.24,0,0,0-.63-1l-.6-8.93-.59,8.24c-.55,0-.94.5-.94,1.34a3.65,3.65,0,0,0,1.53,2.92c.74.43,1.36.09,1.5-.76h8.14Z" style="fill:#fff"></path></g></g><g id="freepik--Gears--inject-2"><g id="freepik--gears--inject-2"><g id="freepik--Gear--inject-2"><path d="M102.74,127.07a1.31,1.31,0,0,1,1.64-.1l1.86,1.4a1.07,1.07,0,0,0,1.5-.23l3.59-4.95a1.7,1.7,0,0,0,0-1.78l-1.44-2.23a2.12,2.12,0,0,1-.1-1.87c.46-1,.88-1.94,1.24-2.93a3.06,3.06,0,0,1,1.32-1.5l3.52-1.75a2.32,2.32,0,0,0,1.12-1.55l.74-5.18a.71.71,0,0,0-.29-.75h0l0,0h0l-4.3-2.49h0a.77.77,0,0,0-.59-.07l-.4.09a2.43,2.43,0,0,1,.31-1.36l3-4.7a1.49,1.49,0,0,0-.15-1.71l-1.91-2.08a1.2,1.2,0,0,0-.27-.19h0l-4.35-2.51h0a.91.91,0,0,0-1.15.25l-2.79,3.36.11-1.88a.69.69,0,0,0-.31-.68h0l-4.35-2.52h0a.78.78,0,0,0-.64,0l-3.78,1.4A2.24,2.24,0,0,0,94.6,90l-1.08,4.84a3.3,3.3,0,0,1-1.12,1.67c-.7.53-1.4,1.11-2.07,1.73a1.23,1.23,0,0,1-.69.32L86.7,96.82h0a1.07,1.07,0,0,0-1.38.3l-3.58,4.95a1.66,1.66,0,0,0,0,1.78l1.43,2.23a2.14,2.14,0,0,1,.11,1.88c-.46,1-.88,1.93-1.24,2.92a3.12,3.12,0,0,1-1.32,1.5l-3.52,1.75A2.31,2.31,0,0,0,76,115.68l-.75,5.19a.72.72,0,0,0,.31.76h0l4.34,2.5h0a.78.78,0,0,0,.59.06l.4-.09a2.67,2.67,0,0,1-.31,1.37l-3,4.7a1.49,1.49,0,0,0,.15,1.71L79.7,134a.88.88,0,0,0,.24.19h0l4.32,2.5v0a.89.89,0,0,0,1.19-.2l2.8-3.36-.11,1.87a.7.7,0,0,0,.31.69h0l4.32,2.5h0a.76.76,0,0,0,.65,0l3.79-1.4a2.18,2.18,0,0,0,1.25-1.43l1.08-4.83a3.28,3.28,0,0,1,1.12-1.68A25.41,25.41,0,0,0,102.74,127.07Zm-.82-23.76a9,9,0,0,1,.53,5.09c-.81,5.62-5.08,11.51-9.55,13.16a7,7,0,0,1-1.75.41,9,9,0,0,1-.53-5.11c.81-5.62,5.08-11.51,9.54-13.15A6.41,6.41,0,0,1,101.92,103.31Z" style="fill:#407BFF"></path><path d="M102.74,127.07a1.31,1.31,0,0,1,1.64-.1l1.86,1.4a1.07,1.07,0,0,0,1.5-.23l3.59-4.95a1.7,1.7,0,0,0,0-1.78l-1.44-2.23a2.12,2.12,0,0,1-.1-1.87c.46-1,.88-1.94,1.24-2.93a3.06,3.06,0,0,1,1.32-1.5l3.52-1.75a2.32,2.32,0,0,0,1.12-1.55l.74-5.18a.71.71,0,0,0-.29-.75h0l0,0h0l-4.3-2.49h0a.77.77,0,0,0-.59-.07l-.4.09a2.43,2.43,0,0,1,.31-1.36l3-4.7a1.49,1.49,0,0,0-.15-1.71l-1.91-2.08a1.2,1.2,0,0,0-.27-.19h0l-4.35-2.51h0a.91.91,0,0,0-1.15.25l-2.79,3.36.11-1.88a.69.69,0,0,0-.31-.68h0l-4.35-2.52h0a.78.78,0,0,0-.64,0l-3.78,1.4A2.24,2.24,0,0,0,94.6,90l-1.08,4.84a3.3,3.3,0,0,1-1.12,1.67c-.7.53-1.4,1.11-2.07,1.73a1.23,1.23,0,0,1-.69.32L86.7,96.82h0a1.07,1.07,0,0,0-1.38.3l-3.58,4.95a1.66,1.66,0,0,0,0,1.78l1.43,2.23a2.14,2.14,0,0,1,.11,1.88c-.46,1-.88,1.93-1.24,2.92a3.12,3.12,0,0,1-1.32,1.5l-3.52,1.75A2.31,2.31,0,0,0,76,115.68l-.75,5.19a.72.72,0,0,0,.31.76h0l4.34,2.5h0a.78.78,0,0,0,.59.06l.4-.09a2.67,2.67,0,0,1-.31,1.37l-3,4.7a1.49,1.49,0,0,0,.15,1.71L79.7,134a.88.88,0,0,0,.24.19h0l4.32,2.5v0a.89.89,0,0,0,1.19-.2l2.8-3.36-.11,1.87a.7.7,0,0,0,.31.69h0l4.32,2.5h0a.76.76,0,0,0,.65,0l3.79-1.4a2.18,2.18,0,0,0,1.25-1.43l1.08-4.83a3.28,3.28,0,0,1,1.12-1.68A25.41,25.41,0,0,0,102.74,127.07Zm-.82-23.76a9,9,0,0,1,.53,5.09c-.81,5.62-5.08,11.51-9.55,13.16a7,7,0,0,1-1.75.41,9,9,0,0,1-.53-5.11c.81-5.62,5.08-11.51,9.54-13.15A6.41,6.41,0,0,1,101.92,103.31Z" style="fill:#fff;opacity:0.2"></path><path d="M106.8,96a1.86,1.86,0,0,0,1.72-.5L112,91.35a.9.9,0,0,1,1.1-.27l-4.29-2.48a.92.92,0,0,0-1.15.24l-2.79,3.36-.14,2.49a1,1,0,0,0,1,1.1A7.65,7.65,0,0,1,106.8,96Zm6.35,5.15h0a.81.81,0,0,0-.59-.07l-.41.09a2.08,2.08,0,0,0,.08.58,11.39,11.39,0,0,1,.36,1.74,1,1,0,0,0,1.17.83l3.13-.74a.81.81,0,0,1,.59.06Z" style="opacity:0.1"></path><path d="M106.78,110.91c.7-4.85-1.41-7.92-4.87-7.6a9,9,0,0,1,.54,5.09c-.81,5.62-5.08,11.51-9.55,13.16a6.58,6.58,0,0,1-1.74.41c1,2.23,3.26,3.13,6.08,2.1C101.71,122.42,106,116.53,106.78,110.91Z" style="opacity:0.1"></path><path d="M87.71,109.32a1.86,1.86,0,0,0-.25-.73L86,106.36a1.68,1.68,0,0,1-.2-1.15l-4.33-2.51a1.6,1.6,0,0,0,.2,1.15l1.43,2.23a1.75,1.75,0,0,1,.24.74Zm-7.78,14.81h0a.69.69,0,0,1-.31-.76l.74-5.18a2.13,2.13,0,0,1,.6-1.13l-4.34-2.51a2.26,2.26,0,0,0-.59,1.13l-.75,5.19a.71.71,0,0,0,.31.76Zm17.95-26.9,1.06-4.77a2.11,2.11,0,0,1,.61-1L95.22,89a2,2,0,0,0-.61,1l-1.07,4.78ZM84.26,136.64a1.28,1.28,0,0,1-.23-.19l-1.91-2.07a1.49,1.49,0,0,1-.15-1.71l3-4.7a2.19,2.19,0,0,0,.28-.84l-4.33-2.5a2.38,2.38,0,0,1-.28.84l-3,4.7a1.49,1.49,0,0,0,.15,1.71l1.91,2.06a.76.76,0,0,0,.24.2Zm8.51,1.48a.37.37,0,0,1-.13-.12.5.5,0,0,1-.14-.27,1.39,1.39,0,0,1,0-.3l.26-4.36a1.36,1.36,0,0,0,0-.29,1,1,0,0,0-.22-.43,1,1,0,0,0-.31-.24L92,132a1.31,1.31,0,0,0-.27-.06,6.59,6.59,0,0,1-1.11-.18,1.81,1.81,0,0,0-1.72.5l-.63.76-.12,1.88a.74.74,0,0,0,.32.69h0Z" style="fill:#407BFF"></path><path d="M87.71,109.32a1.86,1.86,0,0,0-.25-.73L86,106.36a1.68,1.68,0,0,1-.2-1.15l-4.33-2.51a1.6,1.6,0,0,0,.2,1.15l1.43,2.23a1.75,1.75,0,0,1,.24.74Zm-7.78,14.81h0a.69.69,0,0,1-.31-.76l.74-5.18a2.13,2.13,0,0,1,.6-1.13l-4.34-2.51a2.26,2.26,0,0,0-.59,1.13l-.75,5.19a.71.71,0,0,0,.31.76Zm17.95-26.9,1.06-4.77a2.11,2.11,0,0,1,.61-1L95.22,89a2,2,0,0,0-.61,1l-1.07,4.78ZM84.26,136.64a1.28,1.28,0,0,1-.23-.19l-1.91-2.07a1.49,1.49,0,0,1-.15-1.71l3-4.7a2.19,2.19,0,0,0,.28-.84l-4.33-2.5a2.38,2.38,0,0,1-.28.84l-3,4.7a1.49,1.49,0,0,0,.15,1.71l1.91,2.06a.76.76,0,0,0,.24.2Zm8.51,1.48a.37.37,0,0,1-.13-.12.5.5,0,0,1-.14-.27,1.39,1.39,0,0,1,0-.3l.26-4.36a1.36,1.36,0,0,0,0-.29,1,1,0,0,0-.22-.43,1,1,0,0,0-.31-.24L92,132a1.31,1.31,0,0,0-.27-.06,6.59,6.59,0,0,1-1.11-.18,1.81,1.81,0,0,0-1.72.5l-.63.76-.12,1.88a.74.74,0,0,0,.32.69h0Z" style="fill:#fff;opacity:0.7000000000000001"></path><path d="M98.46,135.31l1.08-4.83a3.28,3.28,0,0,1,1.12-1.68,25.41,25.41,0,0,0,2.08-1.73,1.31,1.31,0,0,1,1.64-.1l1.86,1.4a1.07,1.07,0,0,0,1.5-.23l3.59-4.95a1.7,1.7,0,0,0,0-1.78l-1.44-2.23a2.12,2.12,0,0,1-.1-1.87c.46-1,.88-1.94,1.24-2.93a3.06,3.06,0,0,1,1.32-1.5l3.52-1.75a2.32,2.32,0,0,0,1.12-1.55l.74-5.18a.69.69,0,0,0-.9-.83l-3.13.74a1,1,0,0,1-1.17-.83,11.64,11.64,0,0,0-.36-1.74,2.71,2.71,0,0,1,.24-1.94l3-4.7a1.49,1.49,0,0,0-.15-1.71l-1.91-2.08a.92.92,0,0,0-1.42,0l-3.43,4.13a1.81,1.81,0,0,1-1.72.49,9.19,9.19,0,0,0-1.11-.18,1,1,0,0,1-1-1.1l.25-4.36a.65.65,0,0,0-1-.7L100.19,91a2.23,2.23,0,0,0-1.25,1.43l-1.08,4.84A3.37,3.37,0,0,1,96.74,99a23.53,23.53,0,0,0-2.08,1.73,1.33,1.33,0,0,1-1.64.1l-1.86-1.4a1.05,1.05,0,0,0-1.5.23l-3.59,4.94a1.72,1.72,0,0,0,0,1.79l1.44,2.23a2.12,2.12,0,0,1,.1,1.87c-.46,1-.87,1.94-1.24,2.92A3.08,3.08,0,0,1,85,114.89l-3.51,1.74a2.32,2.32,0,0,0-1.13,1.56l-.74,5.18a.68.68,0,0,0,.9.82l3.13-.73a.93.93,0,0,1,1.17.82,12.88,12.88,0,0,0,.36,1.75,2.71,2.71,0,0,1-.24,1.94l-3,4.7a1.48,1.48,0,0,0,.16,1.71l1.9,2.07a.92.92,0,0,0,1.42,0l3.43-4.13a1.81,1.81,0,0,1,1.72-.5,6.76,6.76,0,0,0,1.11.18,1.08,1.08,0,0,1,1,1.11l-.26,4.35a.66.66,0,0,0,1,.71l3.79-1.4A2.18,2.18,0,0,0,98.46,135.31Zm-1.22-11.25c-4.47,1.65-7.43-1.58-6.62-7.2s5.08-11.51,9.54-13.15,7.43,1.57,6.62,7.2S101.7,122.42,97.24,124.06Z" style="fill:#407BFF"></path><path d="M98.46,135.31l1.08-4.83a3.28,3.28,0,0,1,1.12-1.68,25.41,25.41,0,0,0,2.08-1.73,1.31,1.31,0,0,1,1.64-.1l1.86,1.4a1.07,1.07,0,0,0,1.5-.23l3.59-4.95a1.7,1.7,0,0,0,0-1.78l-1.44-2.23a2.12,2.12,0,0,1-.1-1.87c.46-1,.88-1.94,1.24-2.93a3.06,3.06,0,0,1,1.32-1.5l3.52-1.75a2.32,2.32,0,0,0,1.12-1.55l.74-5.18a.69.69,0,0,0-.9-.83l-3.13.74a1,1,0,0,1-1.17-.83,11.64,11.64,0,0,0-.36-1.74,2.71,2.71,0,0,1,.24-1.94l3-4.7a1.49,1.49,0,0,0-.15-1.71l-1.91-2.08a.92.92,0,0,0-1.42,0l-3.43,4.13a1.81,1.81,0,0,1-1.72.49,9.19,9.19,0,0,0-1.11-.18,1,1,0,0,1-1-1.1l.25-4.36a.65.65,0,0,0-1-.7L100.19,91a2.23,2.23,0,0,0-1.25,1.43l-1.08,4.84A3.37,3.37,0,0,1,96.74,99a23.53,23.53,0,0,0-2.08,1.73,1.33,1.33,0,0,1-1.64.1l-1.86-1.4a1.05,1.05,0,0,0-1.5.23l-3.59,4.94a1.72,1.72,0,0,0,0,1.79l1.44,2.23a2.12,2.12,0,0,1,.1,1.87c-.46,1-.87,1.94-1.24,2.92A3.08,3.08,0,0,1,85,114.89l-3.51,1.74a2.32,2.32,0,0,0-1.13,1.56l-.74,5.18a.68.68,0,0,0,.9.82l3.13-.73a.93.93,0,0,1,1.17.82,12.88,12.88,0,0,0,.36,1.75,2.71,2.71,0,0,1-.24,1.94l-3,4.7a1.48,1.48,0,0,0,.16,1.71l1.9,2.07a.92.92,0,0,0,1.42,0l3.43-4.13a1.81,1.81,0,0,1,1.72-.5,6.76,6.76,0,0,0,1.11.18,1.08,1.08,0,0,1,1,1.11l-.26,4.35a.66.66,0,0,0,1,.71l3.79-1.4A2.18,2.18,0,0,0,98.46,135.31Zm-1.22-11.25c-4.47,1.65-7.43-1.58-6.62-7.2s5.08-11.51,9.54-13.15,7.43,1.57,6.62,7.2S101.7,122.42,97.24,124.06Z" style="fill:#fff;opacity:0.55"></path><path d="M85.73,104.32l3.59-4.94a1.44,1.44,0,0,1,1-.6,1.48,1.48,0,0,1,1.11.28l1.86,1.4a.9.9,0,0,0,1.1-.08,24.25,24.25,0,0,1,2.12-1.75,2.94,2.94,0,0,0,1-1.43l1.08-4.84A2.65,2.65,0,0,1,100,90.63l3.79-1.4a1.14,1.14,0,0,1,1.1.11,1.15,1.15,0,0,1,.43,1l-.26,4.36a.64.64,0,0,0,.63.65,8.66,8.66,0,0,1,1.17.19,1.38,1.38,0,0,0,1.29-.36l3.43-4.12a1.37,1.37,0,0,1,1-.51,1.34,1.34,0,0,1,1,.46l1.91,2.07a1.9,1.9,0,0,1,.2,2.22l-3,4.7a2.32,2.32,0,0,0-.19,1.6,14,14,0,0,1,.38,1.8.53.53,0,0,0,.23.41.52.52,0,0,0,.41.07l3.14-.74a1.16,1.16,0,0,1,1.08.24,1.18,1.18,0,0,1,.33,1.06l-.74,5.18a2.73,2.73,0,0,1-1.36,1.87l-3.51,1.75a2.65,2.65,0,0,0-1.11,1.27,30.19,30.19,0,0,1-1.26,3,1.73,1.73,0,0,0,.08,1.46l1.44,2.23a2.1,2.1,0,0,1-.06,2.26l-3.59,4.95a1.49,1.49,0,0,1-2.1.32l-1.86-1.4a.9.9,0,0,0-1.1.07,25.21,25.21,0,0,1-2.11,1.76,2.85,2.85,0,0,0-1,1.43l-1.08,4.84a2.65,2.65,0,0,1-1.52,1.73l-3.79,1.4a1.07,1.07,0,0,1-1.52-1.13l.25-4.36a.64.64,0,0,0-.63-.65,8.66,8.66,0,0,1-1.17-.19,1.4,1.4,0,0,0-1.29.35l-3.43,4.13a1.34,1.34,0,0,1-2.06.05l-1.91-2.07a1.91,1.91,0,0,1-.2-2.23l3-4.7a2.29,2.29,0,0,0,.19-1.6,13.63,13.63,0,0,1-.37-1.8.57.57,0,0,0-.24-.4.48.48,0,0,0-.41-.07l-3.13.74a1.11,1.11,0,0,1-1.42-1.3l.74-5.19a2.77,2.77,0,0,1,1.36-1.87l3.51-1.74a2.77,2.77,0,0,0,1.12-1.27c.36-1,.78-2,1.25-3a1.73,1.73,0,0,0-.08-1.46l-1.44-2.23a2.16,2.16,0,0,1,0-2.12Zm-.54,11L81.68,117a1.93,1.93,0,0,0-.9,1.24L80,123.43a.33.33,0,0,0,.07.31.34.34,0,0,0,.31,0l3.14-.74a1.36,1.36,0,0,1,1.08.19,1.44,1.44,0,0,1,.6,1,12.48,12.48,0,0,0,.35,1.68,3.15,3.15,0,0,1-.29,2.29l-3,4.7a1.1,1.1,0,0,0,.11,1.19l1.91,2.08a.53.53,0,0,0,.39.18.57.57,0,0,0,.39-.2L88.55,132a2.23,2.23,0,0,1,2.15-.64,7,7,0,0,0,1,.17,1.47,1.47,0,0,1,1.4,1.55l-.26,4.36a.39.39,0,0,0,.09.29.33.33,0,0,0,.29,0l3.79-1.4a1.78,1.78,0,0,0,1-1.12l1.08-4.84a3.71,3.71,0,0,1,1.28-1.92,25.87,25.87,0,0,0,2-1.7,1.75,1.75,0,0,1,2.19-.13l1.86,1.4a.68.68,0,0,0,.48.12.65.65,0,0,0,.42-.26l3.59-5a1.26,1.26,0,0,0,0-1.3l-1.43-2.23a2.5,2.5,0,0,1-.13-2.29,31,31,0,0,0,1.22-2.88,3.52,3.52,0,0,1,1.53-1.74l3.52-1.75a1.9,1.9,0,0,0,.89-1.23l.74-5.18a.36.36,0,0,0-.06-.31.34.34,0,0,0-.32,0l-3.13.74a1.34,1.34,0,0,1-1.09-.2,1.4,1.4,0,0,1-.6-1,12.31,12.31,0,0,0-.35-1.69,3.11,3.11,0,0,1,.29-2.28l3-4.7a1.05,1.05,0,0,0-.11-1.19l-1.9-2.08a.53.53,0,0,0-.4-.18.55.55,0,0,0-.39.2l-3.42,4.13a2.23,2.23,0,0,1-2.15.64,6.84,6.84,0,0,0-1-.17,1.48,1.48,0,0,1-1.41-1.55l.26-4.36a.37.37,0,0,0-.09-.29.33.33,0,0,0-.29,0l-3.79,1.39a1.79,1.79,0,0,0-1,1.13l-1.08,4.83A3.73,3.73,0,0,1,97,99.31a25.87,25.87,0,0,0-2,1.7,1.76,1.76,0,0,1-2.19.13l-1.86-1.4a.64.64,0,0,0-.48-.12.7.7,0,0,0-.42.26l-3.59,4.94a1.28,1.28,0,0,0,0,1.31l1.44,2.23a2.53,2.53,0,0,1,.12,2.29,31,31,0,0,0-1.22,2.88,2.6,2.6,0,0,1-.19.42A3.6,3.6,0,0,1,85.19,115.27Zm14.83-12a5.21,5.21,0,0,1,5.26.53c1.68,1.36,2.38,4,1.93,7.12h0c-.83,5.75-5.23,11.81-9.82,13.5a5.26,5.26,0,0,1-5.27-.53c-1.68-1.36-2.38-4-1.92-7.13a18.23,18.23,0,0,1,2.32-6.45C94.41,107.07,97.18,104.35,100,103.31Zm6.34,7.53h0c.41-2.86-.18-5.18-1.62-6.34a4.37,4.37,0,0,0-4.43-.4c-4.33,1.6-8.48,7.35-9.27,12.82-.41,2.87.18,5.18,1.62,6.35a4.35,4.35,0,0,0,4.43.39c2.67-1,5.27-3.54,7-6.63A17.54,17.54,0,0,0,106.36,110.84Z" style="fill:#fff;opacity:0.55"></path></g><g id="freepik--gear--inject-2"><path d="M49.82,117.3l7.7-4.44a2.1,2.1,0,0,0,.92-1.44l.77-8.57a2.85,2.85,0,0,1,.8-1.6,44.8,44.8,0,0,0,4.27-4.52,1.48,1.48,0,0,1,1.52-.43L70.74,98a1.2,1.2,0,0,0,1.39-.51l5.66-9.8a1.22,1.22,0,0,0-.25-1.46l-4-3.42a1.46,1.46,0,0,1-.38-1.52,47.75,47.75,0,0,0,1.78-6,2.86,2.86,0,0,1,1-1.49l7-4.95a2.1,2.1,0,0,0,.78-1.52V58.49a.62.62,0,0,0-.27-.57h0l-5.77-3.35h0a.66.66,0,0,0-.6,0l-4,1.8a1.72,1.72,0,0,1,.12-.94l4.57-9.21a1,1,0,0,0-.41-1.34L73.66,42.7h0l-6.94-4a1.05,1.05,0,0,0-1.37.32l-5.69,8.56a1.7,1.7,0,0,1-.77.59l-.43-4.32a.67.67,0,0,0-.29-.52h0l-5.78-3.36h0a.63.63,0,0,0-.63,0l-7.7,4.45a2.08,2.08,0,0,0-.92,1.43l-.77,8.57a2.88,2.88,0,0,1-.8,1.6,46.17,46.17,0,0,0-4.28,4.53,1.47,1.47,0,0,1-1.51.42l-4.94-1.72a1.2,1.2,0,0,0-1.39.51l-5.66,9.81A1.22,1.22,0,0,0,24,71l4,3.41A1.48,1.48,0,0,1,28.38,76a44.91,44.91,0,0,0-1.78,6,2.88,2.88,0,0,1-1,1.5l-7,5a2.08,2.08,0,0,0-.79,1.51v8.89a.65.65,0,0,0,.27.57h0l5.78,3.36h0a.64.64,0,0,0,.59,0l4-1.79a1.68,1.68,0,0,1-.12.93l-4.57,9.21a1,1,0,0,0,.4,1.34l5.75,3.34a0,0,0,0,1,0,0l5,2.86a1,1,0,0,0,1.36-.32l5.7-8.56a1.65,1.65,0,0,1,.77-.58l.43,4.31a.66.66,0,0,0,.29.52h0l5.78,3.35h0A.61.61,0,0,0,49.82,117.3Zm11-53.65c1.32,1.4,2.06,3.73,2.06,7,0,8.3-5.82,18.38-13,22.53-2.64,1.52-5,2.17-6.82,2-1.51-1.59-2.41-4.07-2.41-7.31,0-8.3,5.83-18.38,13-22.53A10.64,10.64,0,0,1,60.83,63.65Z" style="fill:#407BFF"></path><path d="M49.82,117.3l7.7-4.44a2.1,2.1,0,0,0,.92-1.44l.77-8.57a2.85,2.85,0,0,1,.8-1.6,44.8,44.8,0,0,0,4.27-4.52,1.48,1.48,0,0,1,1.52-.43L70.74,98a1.2,1.2,0,0,0,1.39-.51l5.66-9.8a1.22,1.22,0,0,0-.25-1.46l-4-3.42a1.46,1.46,0,0,1-.38-1.52,47.75,47.75,0,0,0,1.78-6,2.86,2.86,0,0,1,1-1.49l7-4.95a2.1,2.1,0,0,0,.78-1.52V58.49a.62.62,0,0,0-.27-.57h0l-5.77-3.35h0a.66.66,0,0,0-.6,0l-4,1.8a1.72,1.72,0,0,1,.12-.94l4.57-9.21a1,1,0,0,0-.41-1.34L73.66,42.7h0l-6.94-4a1.05,1.05,0,0,0-1.37.32l-5.69,8.56a1.7,1.7,0,0,1-.77.59l-.43-4.32a.67.67,0,0,0-.29-.52h0l-5.78-3.36h0a.63.63,0,0,0-.63,0l-7.7,4.45a2.08,2.08,0,0,0-.92,1.43l-.77,8.57a2.88,2.88,0,0,1-.8,1.6,46.17,46.17,0,0,0-4.28,4.53,1.47,1.47,0,0,1-1.51.42l-4.94-1.72a1.2,1.2,0,0,0-1.39.51l-5.66,9.81A1.22,1.22,0,0,0,24,71l4,3.41A1.48,1.48,0,0,1,28.38,76a44.91,44.91,0,0,0-1.78,6,2.88,2.88,0,0,1-1,1.5l-7,5a2.08,2.08,0,0,0-.79,1.51v8.89a.65.65,0,0,0,.27.57h0l5.78,3.36h0a.64.64,0,0,0,.59,0l4-1.79a1.68,1.68,0,0,1-.12.93l-4.57,9.21a1,1,0,0,0,.4,1.34l5.75,3.34a0,0,0,0,1,0,0l5,2.86a1,1,0,0,0,1.36-.32l5.7-8.56a1.65,1.65,0,0,1,.77-.58l.43,4.31a.66.66,0,0,0,.29.52h0l5.78,3.35h0A.61.61,0,0,0,49.82,117.3Zm11-53.65c1.32,1.4,2.06,3.73,2.06,7,0,8.3-5.82,18.38-13,22.53-2.64,1.52-5,2.17-6.82,2-1.51-1.59-2.41-4.07-2.41-7.31,0-8.3,5.83-18.38,13-22.53A10.64,10.64,0,0,1,60.83,63.65Z" style="fill:#fff;opacity:0.2"></path><path d="M63.93,51.64a1.91,1.91,0,0,0,1.49-.74l5.69-8.57A1,1,0,0,1,72.48,42l1.17.67-6.94-4a1.05,1.05,0,0,0-1.37.32l-5.69,8.57a1.66,1.66,0,0,1-.77.59l.32,3.15a.81.81,0,0,0,1,.72A15.58,15.58,0,0,1,63.93,51.64Zm13.8,2.92h0a.61.61,0,0,0-.59,0l-4,1.8a1.71,1.71,0,0,0,.24.72,16.07,16.07,0,0,1,1.53,3.4.8.8,0,0,0,1.14.52l6.85-3.09a.79.79,0,0,1,.54,0Z" style="opacity:0.2"></path><path d="M53.67,95.33c7.18-4.14,13-14.22,13-22.52,0-5.24-2.33-8.51-5.85-9.17,1.32,1.39,2.06,3.73,2.06,7,0,8.3-5.82,18.38-13,22.53-2.63,1.51-4.93,2.17-6.81,2C45.43,97.6,49.3,97.86,53.67,95.33Z" style="opacity:0.2"></path><path d="M29.79,115.68a1,1,0,0,1-.29-1.26l4.57-9.21a1.42,1.42,0,0,0,.13-.52l-5.78-3.35a1.59,1.59,0,0,1-.12.51l-4.57,9.21a1,1,0,0,0,.4,1.34Zm19.4,1.67h0a.39.39,0,0,1-.15-.14.33.33,0,0,1-.11-.2,1.16,1.16,0,0,1,0-.18l-.75-7.48a.65.65,0,0,0,0-.2.86.86,0,0,0-.23-.35,1,1,0,0,0-.22-.14l-.13,0a1.13,1.13,0,0,0-.41,0,.51.51,0,0,1-.17,0,14.62,14.62,0,0,1-3.53.35,1.9,1.9,0,0,0-.72.15l.43,4.32a.63.63,0,0,0,.29.52h0Zm-25.4-14.66a.71.71,0,0,1-.23-.55V93.25A2,2,0,0,1,24,92.11l-5.77-3.34a2,2,0,0,0-.42,1.13v8.89a.64.64,0,0,0,.25.57ZM47.91,58.54a2.39,2.39,0,0,0,.22-.76l.77-8.56a1.81,1.81,0,0,1,.22-.68l-5.76-3.35a2.11,2.11,0,0,0-.23.68l-.77,8.56a2.3,2.3,0,0,1-.23.75ZM29.52,74a1.21,1.21,0,0,1,0-1.08l5.66-9.81a1.17,1.17,0,0,1,.56-.47L30,59.3a1.23,1.23,0,0,0-.56.47l-5.66,9.8a1.23,1.23,0,0,0,0,1.15Z" style="fill:#407BFF"></path><path d="M29.79,115.68a1,1,0,0,1-.29-1.26l4.57-9.21a1.42,1.42,0,0,0,.13-.52l-5.78-3.35a1.59,1.59,0,0,1-.12.51l-4.57,9.21a1,1,0,0,0,.4,1.34Zm19.4,1.67h0a.39.39,0,0,1-.15-.14.33.33,0,0,1-.11-.2,1.16,1.16,0,0,1,0-.18l-.75-7.48a.65.65,0,0,0,0-.2.86.86,0,0,0-.23-.35,1,1,0,0,0-.22-.14l-.13,0a1.13,1.13,0,0,0-.41,0,.51.51,0,0,1-.17,0,14.62,14.62,0,0,1-3.53.35,1.9,1.9,0,0,0-.72.15l.43,4.32a.63.63,0,0,0,.29.52h0Zm-25.4-14.66a.71.71,0,0,1-.23-.55V93.25A2,2,0,0,1,24,92.11l-5.77-3.34a2,2,0,0,0-.42,1.13v8.89a.64.64,0,0,0,.25.57ZM47.91,58.54a2.39,2.39,0,0,0,.22-.76l.77-8.56a1.81,1.81,0,0,1,.22-.68l-5.76-3.35a2.11,2.11,0,0,0-.23.68l-.77,8.56a2.3,2.3,0,0,1-.23.75ZM29.52,74a1.21,1.21,0,0,1,0-1.08l5.66-9.81a1.17,1.17,0,0,1,.56-.47L30,59.3a1.23,1.23,0,0,0-.56.47l-5.66,9.8a1.23,1.23,0,0,0,0,1.15Z" style="fill:#fff;opacity:0.7000000000000001"></path><path d="M58.44,111.42l.77-8.57a2.85,2.85,0,0,1,.8-1.6,44.8,44.8,0,0,0,4.27-4.52,1.48,1.48,0,0,1,1.52-.43L70.74,98a1.2,1.2,0,0,0,1.39-.51l5.66-9.8a1.22,1.22,0,0,0-.25-1.46l-4-3.42a1.46,1.46,0,0,1-.38-1.52,47.75,47.75,0,0,0,1.78-6,2.86,2.86,0,0,1,1-1.49l7-4.95a2.1,2.1,0,0,0,.78-1.52V58.49a.57.57,0,0,0-.87-.56L76,61a.82.82,0,0,1-1.14-.53,15.11,15.11,0,0,0-1.52-3.4,1.9,1.9,0,0,1-.11-1.66l4.57-9.21a1,1,0,0,0-.41-1.34l-5-2.86a1,1,0,0,0-1.37.32L65.42,50.9a1.91,1.91,0,0,1-1.49.74,15.53,15.53,0,0,0-3.7.37.81.81,0,0,1-1-.72l-.75-7.48a.58.58,0,0,0-.93-.48l-7.7,4.45a2.07,2.07,0,0,0-.92,1.44l-.77,8.56a2.88,2.88,0,0,1-.8,1.6,46.17,46.17,0,0,0-4.28,4.53,1.47,1.47,0,0,1-1.51.43L36.6,62.61a1.22,1.22,0,0,0-1.39.52l-5.66,9.8a1.22,1.22,0,0,0,.25,1.46l4,3.42a1.47,1.47,0,0,1,.38,1.52,46.12,46.12,0,0,0-1.78,6,2.9,2.9,0,0,1-1,1.49l-7,4.95a2.08,2.08,0,0,0-.78,1.51v8.89a.57.57,0,0,0,.87.57l6.85-3.09a.81.81,0,0,1,1.14.53,15.8,15.8,0,0,0,1.53,3.4,1.9,1.9,0,0,1,.11,1.66l-4.57,9.21a1,1,0,0,0,.4,1.34l5,2.86a1,1,0,0,0,1.36-.32l5.7-8.56a1.88,1.88,0,0,1,1.49-.74,15.11,15.11,0,0,0,3.7-.38.82.82,0,0,1,1,.73l.75,7.48a.57.57,0,0,0,.93.47l7.7-4.44A2.1,2.1,0,0,0,58.44,111.42ZM53.67,95.34c-7.18,4.14-13,.78-13-7.51s5.83-18.38,13-22.53,13-.78,13,7.51S60.85,91.19,53.67,95.34Z" style="fill:#407BFF"></path><path d="M58.44,111.42l.77-8.57a2.85,2.85,0,0,1,.8-1.6,44.8,44.8,0,0,0,4.27-4.52,1.48,1.48,0,0,1,1.52-.43L70.74,98a1.2,1.2,0,0,0,1.39-.51l5.66-9.8a1.22,1.22,0,0,0-.25-1.46l-4-3.42a1.46,1.46,0,0,1-.38-1.52,47.75,47.75,0,0,0,1.78-6,2.86,2.86,0,0,1,1-1.49l7-4.95a2.1,2.1,0,0,0,.78-1.52V58.49a.57.57,0,0,0-.87-.56L76,61a.82.82,0,0,1-1.14-.53,15.11,15.11,0,0,0-1.52-3.4,1.9,1.9,0,0,1-.11-1.66l4.57-9.21a1,1,0,0,0-.41-1.34l-5-2.86a1,1,0,0,0-1.37.32L65.42,50.9a1.91,1.91,0,0,1-1.49.74,15.53,15.53,0,0,0-3.7.37.81.81,0,0,1-1-.72l-.75-7.48a.58.58,0,0,0-.93-.48l-7.7,4.45a2.07,2.07,0,0,0-.92,1.44l-.77,8.56a2.88,2.88,0,0,1-.8,1.6,46.17,46.17,0,0,0-4.28,4.53,1.47,1.47,0,0,1-1.51.43L36.6,62.61a1.22,1.22,0,0,0-1.39.52l-5.66,9.8a1.22,1.22,0,0,0,.25,1.46l4,3.42a1.47,1.47,0,0,1,.38,1.52,46.12,46.12,0,0,0-1.78,6,2.9,2.9,0,0,1-1,1.49l-7,4.95a2.08,2.08,0,0,0-.78,1.51v8.89a.57.57,0,0,0,.87.57l6.85-3.09a.81.81,0,0,1,1.14.53,15.8,15.8,0,0,0,1.53,3.4,1.9,1.9,0,0,1,.11,1.66l-4.57,9.21a1,1,0,0,0,.4,1.34l5,2.86a1,1,0,0,0,1.36-.32l5.7-8.56a1.88,1.88,0,0,1,1.49-.74,15.11,15.11,0,0,0,3.7-.38.82.82,0,0,1,1,.73l.75,7.48a.57.57,0,0,0,.93.47l7.7-4.44A2.1,2.1,0,0,0,58.44,111.42ZM53.67,95.34c-7.18,4.14-13,.78-13-7.51s5.83-18.38,13-22.53,13-.78,13,7.51S60.85,91.19,53.67,95.34Z" style="fill:#fff;opacity:0.55"></path><path d="M36.72,62.25l5,1.73a1.11,1.11,0,0,0,1.09-.31,47.26,47.26,0,0,1,4.32-4.57,2.44,2.44,0,0,0,.67-1.35l.78-8.57a2.46,2.46,0,0,1,1.1-1.73L57.33,43a.94.94,0,0,1,1.49.76l.75,7.48a.49.49,0,0,0,.18.33.47.47,0,0,0,.39.06,16.23,16.23,0,0,1,3.8-.38,1.54,1.54,0,0,0,1.17-.57l5.69-8.56a1.42,1.42,0,0,1,1.87-.44l5,2.86a1.43,1.43,0,0,1,.56,1.84L73.61,55.6a1.51,1.51,0,0,0,.09,1.29,16,16,0,0,1,1.56,3.48.48.48,0,0,0,.26.31.44.44,0,0,0,.37,0l6.85-3.09a.95.95,0,0,1,1.41.91v8.89a2.46,2.46,0,0,1-1,1.82l-7,5a2.42,2.42,0,0,0-.83,1.26,46.59,46.59,0,0,1-1.8,6,1.09,1.09,0,0,0,.28,1.1l4,3.42a1.6,1.6,0,0,1,.32,1.94l-5.66,9.8a1.57,1.57,0,0,1-1.84.68l-4.94-1.72a1.09,1.09,0,0,0-1.1.31,44.79,44.79,0,0,1-4.31,4.56,2.52,2.52,0,0,0-.68,1.36l-.77,8.56a2.42,2.42,0,0,1-1.1,1.73L50,117.63a1,1,0,0,1-1,.07,1,1,0,0,1-.51-.84l-.75-7.47a.45.45,0,0,0-.18-.33.49.49,0,0,0-.4-.07,15.7,15.7,0,0,1-3.79.39,1.52,1.52,0,0,0-1.17.57l-5.69,8.56a1.43,1.43,0,0,1-1.87.44l-5-2.87a1.42,1.42,0,0,1-.56-1.83L33.73,105a1.53,1.53,0,0,0-.09-1.3,15.6,15.6,0,0,1-1.57-3.48.49.49,0,0,0-.25-.31.48.48,0,0,0-.37,0l-6.85,3.09a1,1,0,0,1-1,0,1,1,0,0,1-.43-.88V93.25a2.43,2.43,0,0,1,.94-1.82l7-5A2.57,2.57,0,0,0,32,85.21a46,46,0,0,1,1.8-6,1.11,1.11,0,0,0-.28-1.11l-4-3.42a1.57,1.57,0,0,1-.32-1.93l5.66-9.8A1.57,1.57,0,0,1,36.72,62.25ZM31.6,87.1l-7,5a1.68,1.68,0,0,0-.63,1.2v8.89c0,.12,0,.22.09.25a.35.35,0,0,0,.26,0l6.85-3.09a1.18,1.18,0,0,1,1,0,1.21,1.21,0,0,1,.66.77,15.27,15.27,0,0,0,1.49,3.32,2.25,2.25,0,0,1,.12,2l-4.56,9.2a.66.66,0,0,0,.25.85l5,2.86a.65.65,0,0,0,.86-.2l5.69-8.56a2.26,2.26,0,0,1,1.82-.91,14.72,14.72,0,0,0,3.61-.37,1.21,1.21,0,0,1,1,.2,1.19,1.19,0,0,1,.49.86l.75,7.48c0,.12,0,.21.11.23a.28.28,0,0,0,.25,0l7.7-4.44a1.72,1.72,0,0,0,.73-1.14l.77-8.57a3.21,3.21,0,0,1,.92-1.84A45.65,45.65,0,0,0,64,96.49a1.88,1.88,0,0,1,1.93-.55l4.94,1.73a.85.85,0,0,0,.94-.35l5.66-9.8a.84.84,0,0,0-.17-1l-4-3.41a1.85,1.85,0,0,1-.5-1.94,45.06,45.06,0,0,0,1.77-5.92,3.22,3.22,0,0,1,1.14-1.72l7-5a1.74,1.74,0,0,0,.63-1.21V58.49a.28.28,0,0,0-.09-.24.27.27,0,0,0-.26,0L76.2,61.36a1.18,1.18,0,0,1-1,0,1.23,1.23,0,0,1-.67-.77,14.49,14.49,0,0,0-1.49-3.31,2.31,2.31,0,0,1-.12-2l4.57-9.21a.65.65,0,0,0-.26-.84l-4.95-2.87a.66.66,0,0,0-.86.21l-5.69,8.56a2.28,2.28,0,0,1-1.82.9,15.17,15.17,0,0,0-3.61.37,1.27,1.27,0,0,1-1-.19,1.23,1.23,0,0,1-.48-.86l-.75-7.48a.29.29,0,0,0-.11-.24.28.28,0,0,0-.25,0L50,48.11a1.67,1.67,0,0,0-.73,1.14l-.77,8.57a3.27,3.27,0,0,1-.92,1.84,43.4,43.4,0,0,0-4.24,4.49,1.85,1.85,0,0,1-1.93.54l-5-1.72a.81.81,0,0,0-.93.34l-5.66,9.81a.81.81,0,0,0,.17,1l4,3.42a1.85,1.85,0,0,1,.49,1.94,46.56,46.56,0,0,0-1.76,5.92,3,3,0,0,1-.32.78A3,3,0,0,1,31.6,87.1ZM53.48,65c3.6-2.07,7-2.4,9.57-.91s4,4.6,4,8.75h0c0,8.4-5.92,18.65-13.19,22.85-3.6,2.08-7,2.4-9.58.91s-4-4.59-4-8.74a27.1,27.1,0,0,1,3.86-13A27,27,0,0,1,53.48,65ZM66.3,72.81h0c0-3.87-1.29-6.75-3.62-8.09s-5.47-1-8.82.91C46.79,69.71,41,79.66,41,87.83c0,3.87,1.29,6.74,3.62,8.09s5.47,1,8.82-.91a26.23,26.23,0,0,0,9.06-9.57A26.22,26.22,0,0,0,66.3,72.81Z" style="fill:#fff;opacity:0.55"></path></g></g></g><g id="freepik--Cloud--inject-2"><g id="freepik--cloud--inject-2"><path d="M152.63,41.37h0l-.15-.08-.09-.05-3.17-1.83c0-.08,0-.15,0-.23,0-3.9-1.32-6.62-3.38-7.77h0l-6.1-3.53h0c-1.67-1-3.86-.88-6.25.5a14.48,14.48,0,0,0-3,2.39,6.78,6.78,0,0,0-1.32-1h0l-5.9-3.4h0c-2.15-1.43-5-1.4-8.22.43C108.37,30.63,103,41,103,49.88a18.2,18.2,0,0,0,.23,2.95l-.84.48c-4.25,2.45-7.69,9-7.69,14.7h0c0,3.13,1,5.36,2.71,6.32h0l6.18,3.56h0c1.34.77,3.07.71,5-.39L119.69,71l29.8-17.2c2.55-1.48,4.62-5.42,4.62-8.82h0C154.11,43.24,153.54,42,152.63,41.37Z" style="fill:#407BFF"></path><path d="M152.63,41.37h0l-.15-.08-.09-.05-3.17-1.83c0-.08,0-.15,0-.23,0-3.9-1.32-6.62-3.38-7.77h0l-6.1-3.53h0c-1.67-1-3.86-.88-6.25.5a14.48,14.48,0,0,0-3,2.39,6.78,6.78,0,0,0-1.32-1h0l-5.9-3.4h0c-2.15-1.43-5-1.4-8.22.43C108.37,30.63,103,41,103,49.88a18.2,18.2,0,0,0,.23,2.95l-.84.48c-4.25,2.45-7.69,9-7.69,14.7h0c0,3.13,1,5.36,2.71,6.32h0l6.18,3.56h0c1.34.77,3.07.71,5-.39L119.69,71l29.8-17.2c2.55-1.48,4.62-5.42,4.62-8.82h0C154.11,43.24,153.54,42,152.63,41.37Z" style="fill:#fff;opacity:0.2"></path><path d="M145.86,31.39h0c-1.67-.93-3.84-.82-6.2.55a14.51,14.51,0,0,0-3.16,2.54l-5.6-3.25-.55-.32.14-.14a14.48,14.48,0,0,1,3-2.39c2.39-1.38,4.58-1.47,6.25-.5h0Z" style="fill:#fff;opacity:0.35000000000000003"></path><path d="M130.49,30.77c.14.15.28.3.41.46l-.55-.32Z" style="fill:#fff;opacity:0.8"></path><path d="M129,29.64h0c-2.11-1.18-4.84-1-7.82.68a23,23,0,0,0-7.92,8.52l-6.15-3.56A23.14,23.14,0,0,1,115,26.77c3.18-1.83,6.07-1.86,8.23-.43h0Z" style="fill:#fff;opacity:0.35000000000000003"></path><path d="M109.33,56.39l-.83.47c-2.88,1.67-5.39,5.23-6.71,9.11l-6.15-3.55a18.68,18.68,0,0,1,5-7.88l2.54-1.71Z" style="fill:#fff;opacity:0.35000000000000003"></path><path d="M149.49,41.53l-.44.25a19.33,19.33,0,0,0,.19-2.61c0-7.05-4.29-10.29-9.58-7.23a18.42,18.42,0,0,0-6.38,6.93c-.24-8.48-5.55-12.31-12.08-8.54-6.68,3.86-12.09,14.2-12.09,23.11a19.32,19.32,0,0,0,.22,2.94l-.83.48c-4.25,2.46-7.7,9-7.7,14.7h0c0,5.67,3.45,8.4,7.7,5.94L119.69,71h0l29.8-17.2c2.55-1.48,4.62-5.42,4.62-8.82h0C154.11,41.62,152,40.06,149.49,41.53Z" style="fill:#407BFF"></path><path d="M149.49,41.53l-.44.25a19.33,19.33,0,0,0,.19-2.61c0-7.05-4.29-10.29-9.58-7.23a18.42,18.42,0,0,0-6.38,6.93c-.24-8.48-5.55-12.31-12.08-8.54-6.68,3.86-12.09,14.2-12.09,23.11a19.32,19.32,0,0,0,.22,2.94l-.83.48c-4.25,2.46-7.7,9-7.7,14.7h0c0,5.67,3.45,8.4,7.7,5.94L119.69,71h0l29.8-17.2c2.55-1.48,4.62-5.42,4.62-8.82h0C154.11,41.62,152,40.06,149.49,41.53Z" style="fill:#fff;opacity:0.7000000000000001"></path><path d="M105.5,76.83c-1.89,0-3.12-2.07-3.12-5.27,0-5.06,3.16-11.17,6.91-13.33l.83-.48a1.59,1.59,0,0,0,.77-1.61h0a16.72,16.72,0,0,1-.2-2.7c0-8.39,5.07-18.15,11.3-21.75a8.12,8.12,0,0,1,4-1.23c3.37,0,5.56,3.24,5.71,8.46h0a1.57,1.57,0,0,0,2.94.73h0a16.9,16.9,0,0,1,5.8-6.35,6.16,6.16,0,0,1,3-.94c2.55,0,4.2,2.68,4.2,6.81a18.3,18.3,0,0,1-.17,2.4h0a1.58,1.58,0,0,0,2.35,1.58l.44-.26a2.25,2.25,0,0,1,1-.34c.84,0,1.21,1.24,1.21,2.47,0,2.84-1.75,6.25-3.83,7.45l-41,23.67a4.51,4.51,0,0,1-2.21.69Z" style="fill:#fff;opacity:0.7000000000000001"></path></g></g></svg>
